<svg version="1.1" id="Layer_1" xmlns:x="ns_extend;" xmlns:i="ns_ai;" xmlns:graph="ns_graphs;" xmlns="http://www.w3.org/2000/svg" xmlns:xlink="http://www.w3.org/1999/xlink" x="0px" y="0px" viewBox="0 0 126.7 50" style="enable-background:new 0 0 126.7 50;" xml:space="preserve">
 <style type="text/css">
  .st0{fill:#FFFFFF;}
 </style>
 <metadata>
  <sfw xmlns="ns_sfw;">
   <slices>
   </slices>
   <sliceSourceBounds bottomLeftOrigin="true" height="50" width="126.7" x="410.4" y="-332.4">
   </sliceSourceBounds>
  </sfw>
 </metadata>
 <g>
  <path id="path741" class="st0" d="M105.7,35.3c0,0.2,0.3,0.4,0.5,0.5c0.1,0,0.1,0.1,0,0.3c-0.7,1.5-1.3,2.3-2.1,3.5
		c-0.8,1.2-1.7,2.1-2.7,2.9c-1.6,1.3-3.8,2.8-5.6,1.8c-0.8-0.4-1.2-1.6-1.1-2.5c0-2.6,1.2-5.3,3.3-7.9c2.6-3.2,5.5-4.9,7.4-4
		c2,0.9,1.3,3.2,0.5,5C105.7,35,105.7,35.2,105.7,35.3 M126.7,15.1c0.1-0.2,0-0.4-0.3-0.4c-1.6,0-3.8,0-5.5,0
		c-0.4,0-0.6,0.1-0.8,0.4c-0.6,1.2-8.3,12.7-9.7,14.9c-0.2,0.3-0.5,0.3-0.6-0.1c-0.2-1.3-1.3-2.8-3.1-3.6c-1.4-0.5-2.7-0.7-4.1-0.5
		c-2.5,0.3-4.7,1.7-6.7,3.2c-3,2.3-5.5,5.2-8.8,7.3c-1.8,1.2-4.3,2.2-5.9,0.7c-1.5-1.4-1.3-4.5,1-6.9c0.2-0.2,0.5,0,0.5,0.2
		c-0.2,1.1,0.1,2.1,0.9,2.9c1,0.9,2.4,1,3.7,0.4c1.5-0.7,2.3-2.1,2.5-3.7c0.4-2.4-1.5-4.6-3.8-4.7c-1.9-0.1-3.7,0.5-5.5,2
		c-0.9,0.7-1.4,1.3-2.2,2.4c-0.2,0.3-0.5,0.3-0.5-0.1c0.1-3.1-1.2-4.9-3.8-4.9c-2-0.1-4.1,1-5.8,2.4c-1.8,1.5-3.4,3.4-5.1,5.2
		c-0.2,0.2-0.4,0.2-0.5-0.2c-0.1-2.1-0.6-4.1-1.5-5.5c-0.3-0.5-1.1-0.7-1.6-0.4c-0.3,0.2-1.2,0.6-1.9,1.1c-0.3,0.3-0.5,0.7-0.3,1.2
		c0.9,3.1,0.7,6.6-0.5,9.5c-1.1,2.7-3.4,5.2-6,6c-1.7,0.5-3.5,0.3-4.6-1.2c-1.5-2.1-0.9-5.8,1.4-8.8c2-2.7,4.9-4.4,7.8-5.5
		c0.3-0.1,0.4-0.4,0.3-0.6c-0.2-0.5-0.4-1.1-0.5-1.4c-0.3-0.7-1-0.8-1.9-0.7c-2.1,0.2-4,1-5.9,2c-4.9,2.6-7.4,7.7-8.5,10.4
		c-0.5,1.3-1,2.1-1.5,2.8c-0.8,1-1.8,1.9-3.5,3.4c-0.2,0.2-0.3,0.4-0.2,0.7c0.2,0.4,1.1,1.7,1.4,1.8c0.3,0.2,0.6-0.1,0.8-0.2
		c1.2-0.8,2.7-2.2,3.5-3.1c0.3-0.3,0.5-0.2,0.7,0.3c0.7,2.4,2.4,4.4,4.9,5.2c4.5,1.5,9.2-0.7,12.7-4.5c2.2-2.4,3.1-4,3.9-5.1
		c1.5-1.8,4.3-5.8,7.7-8.4c1.3-1,2.7-1.7,3.5-1.2c0.6,0.4,0.8,1.3-0.2,3c-3.5,6.4-8.6,13.8-9.5,15.7c-0.2,0.3,0,0.6,0.3,0.6
		c1.8,0,3.6,0,5.3,0c0.3,0,0.4-0.1,0.5-0.3c2.7-4.2,5.2-8.2,7.9-12.3c0.2-0.2,0.3-0.1,0.3,0.1c0.1,1,0.3,2.3,0.9,3.1
		c1,1.6,2.5,2.3,4.1,2.3c1.3,0,1.9-0.2,3.3-0.7c1.1-0.4,2-1,2.7-1.5c0.4-0.3,0.5,0.2,0.5,0.3c-0.6,3.3,0.2,7.3,3.4,8.9
		c4,1.9,8.3-0.8,10.8-3.3c0.2-0.2,0.5-0.2,0.5,0.3c0.1,0.9,0.5,2.1,1.3,2.8c2.1,2.1,6.3,1.3,10.6-2c2.7-2.1,5.6-5.1,8.1-8.2
		c0.1-0.1,0.2-0.3,0-0.5c-0.4-0.4-1-0.9-1.4-1.2c-0.2-0.2-0.4-0.1-0.6,0c-2.6,2.5-5,5.4-8.4,7.7c-1.1,0.8-3,1.5-3.8,0.3
		c-0.3-0.4-0.3-1,0-1.8C110,40.6,125.9,16.5,126.7,15.1">
  </path>
  <path id="path745" class="st0" d="M52.2,18c0.1,0.4,0.2,0.4,0.4,0.4c0.8-0.2,1.7-0.8,2.2-1.6c0.5-0.7,0.7-1.7,0.2-2.1
		c-0.4-0.4-1.1-0.3-1.6,0.2C52.3,15.7,52,17,52.2,18 M11.8,49c-5.9,0-11.1-3.6-11.7-9.9c-0.3-3.5,0.7-6.6,2.6-9.2
		c1.8-2.3,4.7-4.2,7.3-4.7c0.8-0.2,1.9-0.1,2.4,0.5c0.7,0.8,0.5,1.8-0.2,2.1c-1.9,1-4.2,2.7-5.4,5c-0.9,1.9-1.1,4.1,0.3,6.3
		c2.4,3.6,9,3.7,15.1-2c1.5-1.4,2.9-2.7,4.3-4.3c2.7-3.1,3.6-4.2,7.2-9.2c0-0.1,0.1-0.1,0-0.2c0-0.1-0.1-0.1-0.2-0.1
		C31.1,23.3,29,24,27,25.5c-0.6,0.4-1.4,0.4-1.8-0.2c-0.4-0.6-0.1-1.5,0.6-1.9c3.3-2.3,6.9-2.7,10.5-3.3c0,0,0.2,0,0.5-0.3
		c1.5-1.9,2.6-3.7,4.2-5.6c1.6-2,3.7-3.8,5.3-5.2c2.2-1.9,3.6-2.5,5.1-3.3c0.4-0.2-0.1-0.4-0.2-0.4c-8.1-1.5-16.5-3.5-24.5-0.5
		c-5.6,2.1-8,6.5-6.8,9.4c0.8,2.1,3.6,2.4,6.2,1.2c2.1-1.1,4.1-2.7,5.5-4.9c0.8-1.2,2.4-0.3,1.5,1.8c-2.4,5.5-6.8,9.9-12.3,10.1
		c-4.7,0.2-7.6-3.3-7.6-7.5c0-8.3,9.3-13.8,19-14.6c11.7-1,22.8,2.1,34.5,3.6c8.9,1.1,17.5,1.1,26.4-1c1.1-0.2,1.8,0.5,1.7,1.5
		c-0.1,1.5-1.3,3-4.2,4.7c-3.4,1.8-6.9,2.4-10.5,2.4C71.1,11.5,62.9,8,54.3,6.2c0,0.4,0.1,0.8-0.2,1.1c-4.7,3.5-9,7-11.9,12
		c-0.1,0.1-0.1,0.2,0.1,0.2c2.5-0.1,4.7-0.2,7.1-0.4c0.4,0,0.4-0.1,0.4-0.4c-0.2-1.7,0.3-3.7,1.8-5c1.5-1.4,3.5-1.5,4.8-0.5
		c1.5,1.1,1.3,3.2,0.5,4.7c-0.8,1.6-2.1,2.4-3.4,2.8c0,0-0.3,0.1-0.2,0.3c0.1,0.4,1.8,1.4,2,1.6c0.2,0.2,0.1,0.6-0.2,0.9
		c-0.2,0.2-0.5,0.4-0.8,0.4c-0.3,0-0.5-0.1-0.9-0.3c-0.8-0.4-1.8-1.1-2.4-2c-0.2-0.3-0.3-0.3-0.9-0.3c-2.5,0.2-6.4,0.5-9.1,0.8
		c-0.6,0.1-0.7,0.2-0.9,0.4c-4.2,7-8.8,14.5-13.7,19.6C20.9,47.5,16.5,49,11.8,49">
  </path>
 </g>
</svg>