<?xml version="1.0" encoding="UTF-8" standalone="no"?>
<!DOCTYPE svg PUBLIC "-//W3C//DTD SVG 1.1//EN" "http://www.w3.org/Graphics/SVG/1.1/DTD/svg11.dtd">
<svg width="100%" height="100%" viewBox="0 0 231 294" version="1.1" xmlns="http://www.w3.org/2000/svg" xmlns:xlink="http://www.w3.org/1999/xlink" xml:space="preserve" xmlns:serif="http://www.serif.com/" style="fill-rule:evenodd;clip-rule:evenodd;stroke-linejoin:round;stroke-miterlimit:2;">
    <g id="Background">
        <path d="M70.5,293.999L68.5,293.999C70.074,284.639 67.383,282.261 71.509,281.993C74.457,281.802 75.369,282.9 75.966,280.621C76.052,280.295 76.751,277.633 75.578,276.424C74.786,275.608 70.285,276.157 69.555,275.443C68.741,274.647 69.164,274.455 69.095,261.5C69.086,259.894 69.598,259.684 68.469,258.53C66.994,257.022 57.487,258.313 56.565,257.438C56.165,257.057 56.146,255.671 56.144,255.514C56.022,246.242 56.027,246.148 56.561,245.555C57.131,244.922 58.116,245.052 67.483,245.026C68.292,245.519 69.102,246.011 69.911,246.504C69.842,252.244 69.653,255.616 70.523,256.477C71.302,257.248 71.402,257.098 72.503,257.104C76.864,257.126 79.967,257.191 80.583,256.589C81.415,255.777 81.169,255.648 81.174,254.496C81.197,249.384 81.269,246.043 80.575,245.407C79.951,244.836 77.386,244.957 71.52,244.974C70.7,244.484 69.88,243.994 69.059,243.504C69.117,238.809 69.067,138.118 69.085,132.498C69.096,128.996 69.631,129.075 71.352,127.352C115.502,83.176 115.52,83.2 119.346,79.345C121.605,77.069 121.378,76.836 121.636,76.733C121.731,76.695 122.237,76.494 122.849,77.163C123.705,78.098 123.139,78.25 123.063,79.506C122.954,81.305 122.966,81.307 122.966,224.5C122.966,239.444 123.06,239.482 122.595,240.551C122.301,241.228 122.25,241.197 116.224,247.224C110.109,253.338 70.909,292.431 70.712,292.856C70.548,293.207 70.663,293.647 70.5,293.999L86.007,257.5C85.889,260.707 85.293,261.962 88.505,262.104C88.507,262.104 95.396,262.104 95.495,262.103C98.706,262.064 97.993,260.714 97.993,257.5C97.994,254.985 97.997,255.003 98.066,252.505C98.155,249.287 96.714,250.035 93.5,250.035C88.18,250.034 87.111,249.858 86.466,250.464C85.872,251.022 86.007,253.862 86.007,257.5L70.5,293.999L77.5,262.007C74.286,262.053 72.852,261.293 72.938,264.505C73.059,269.002 72.724,270.146 75.504,270.174C78.695,270.205 78.678,270.054 79.618,269.982C79.852,269.964 80.103,270.123 80.321,270.034C80.481,269.968 80.463,269.709 80.586,269.586C80.709,269.463 80.954,269.474 81.034,269.321C81.19,269.022 81.315,264.559 80.977,263.371C80.663,262.268 80.587,262.201 79.462,261.944C79.462,261.944 77.657,262.002 77.5,262.007L70.5,293.999Z" style="fill:white;fill-opacity:0.99;"/>
        <path d="M227.5,0L230.999,0C231.31,0.311 230.999,0.399 230.999,5.5L230.999,42.5C230.797,42.584 230.213,42.282 229.238,43.23C221.58,50.678 221.884,50.955 221.565,51.543C221.164,52.284 221.071,52.225 200.648,72.648C197.208,76.088 157.816,115.48 157.641,115.648C156.088,117.134 155.829,116.915 145.5,116.915C130.214,116.915 130.084,116.998 129.538,116.461C128.912,115.846 128.993,115.685 128.993,88.5C128.993,74.5 128.984,74.507 129.066,71.505C129.139,68.839 127.998,69.447 125.636,68.218C123.058,66.876 122.911,67.259 120.29,65.97C118.082,64.884 115.702,64.655 112.296,62.96C111.845,62.735 111.796,62.883 106.437,60.633C102.913,59.154 102.726,59.667 99.296,57.96C98.845,57.735 98.799,57.872 93.438,55.632C91.358,54.763 91.3,54.961 89.286,53.979C86.937,52.834 84.817,52.714 81.291,50.961C80.84,50.736 80.775,50.901 75.433,48.64C71.898,47.144 71.712,47.662 68.291,45.961C67.409,45.523 64.566,44.642 64.459,44.6C63.759,44.325 63.076,44.008 62.38,43.725C61.684,43.443 59.384,42.987 59.294,42.64C58.831,40.851 59.655,40.891 61.507,40.886C62.547,40.883 62.533,41.174 74.5,41.174C186.981,41.174 187,41.193 187.372,41.019C187.847,40.797 187.803,40.729 223.766,4.766C225.28,3.252 225.302,3.302 226.768,1.756C226.925,1.591 227.204,1.529 227.291,1.32C227.463,0.909 227.329,0.411 227.5,0Z" style="fill:white;fill-opacity:0.99;"/>
        <path d="M0,137.5L0,99.5C0.384,99.31 0.878,99.447 1.261,99.257C1.531,99.124 2.353,97.608 2.435,97.457C2.894,96.61 2.937,96.647 10.792,88.792C14.147,85.437 52.592,46.992 52.772,46.905C53.302,46.646 55.706,46.926 57.369,47.776C61.367,49.818 61.68,49.042 65.706,51.042C66.698,51.535 69.969,52.573 70.368,52.777C74.367,54.823 74.682,54.043 78.706,56.042C79.697,56.534 82.969,57.573 83.367,57.778C87.359,59.835 87.676,59.035 91.704,61.04C92.693,61.533 95.97,62.574 96.367,62.778C100.359,64.835 100.676,64.035 104.704,66.04C105.693,66.533 108.97,67.574 109.367,67.778C114.793,70.574 118.245,69.814 117.581,72.529C117.456,73.041 117.324,72.994 67.659,122.659C65.06,125.259 64.915,126.266 62.307,124.964C61.338,124.48 58.025,123.424 57.633,123.222C54.251,121.478 51.054,120.958 49.635,120.219C47.054,118.874 46.906,119.256 44.29,117.97C42.035,116.861 41.821,117.403 30.437,112.633C27.353,111.341 26.532,111.939 25.218,113.204C19.393,118.811 7.37,131.115 1.658,136.675C0.615,137.69 0.411,137.296 0,137.5Z" style="fill:white;fill-opacity:0.99;"/>
        <path d="M56.993,264.5C57.103,261.492 56.472,260.265 59.49,260.217C65.382,260.125 65.345,260.489 65.434,260.565C65.858,260.929 66.122,261.155 65.935,267.53C65.878,269.497 65.475,269.657 63.505,269.682C63.101,269.688 58.956,269.742 58.451,269.697C57.494,269.613 57.427,269.534 57.154,268.62C56.993,268.079 56.993,264.83 56.993,264.5Z" style="fill:white;fill-opacity:0.98;"/>
        <path d="M66.014,276.497C66.002,276.667 65.871,278.621 65.871,278.621C65.483,279.958 64.826,279.865 60.489,279.739C57.531,279.653 58.134,278.461 58.137,275.499C58.139,273.024 57.997,272.233 60.48,272.171C64.964,272.059 65.179,272.255 65.475,272.524C65.668,272.701 65.87,272.677 66.014,276.497Z" style="fill:white;fill-opacity:0.99;"/>
        <path d="M48.034,276.502C48.129,273.597 48.069,273.607 48.137,273.365C48.156,273.295 48.289,272.816 48.566,272.573C49.211,272.005 53.842,271.983 54.438,272.564C54.892,273.006 54.907,275.01 54.866,277.517C54.864,277.673 54.842,278.995 54.417,279.418C53.905,279.927 50.807,279.879 50.491,279.874C47.475,279.827 47.999,278.217 48.034,276.502Z" style="fill:white;"/>
        <path d="M59.499,289.02C56.477,288.862 55.229,289.532 55.173,286.509C55.167,286.193 55.11,283.09 55.59,282.584C56.347,281.785 61.975,282.193 62.408,282.585C62.854,282.989 62.875,284.33 62.877,284.486C62.882,284.805 62.929,287.935 62.447,288.451C62.151,288.768 61.694,288.856 61.621,288.87C60.557,289.076 60.548,288.817 59.499,289.02Z" style="fill:white;fill-opacity:0.99;"/>
        <path d="M52.5,293.999L47.5,293.999C47.596,293.485 47.939,293.482 47.966,291.508C47.987,289.968 48.302,289.082 50.511,289.1C52.55,289.116 52.791,289.464 52.859,291.489C52.909,292.973 52.514,293.902 52.5,293.999Z" style="fill:white;"/>
    </g>
</svg>
